<svg width="167" height="181" viewBox="0 0 167 181" fill="none" xmlns="http://www.w3.org/2000/svg">
<g id="Frame">
<path id="Vector" d="M143.269 90.7983C130.141 114.423 110.197 136.018 85.0779 148.427C68.9207 156.541 54.0257 158.808 36.48 155.467C35.4702 155.228 34.4603 154.87 33.3243 154.751C32.3145 154.632 31.1784 154.87 30.0423 155.944C23.9834 161.91 17.9244 167.398 11.9917 173.364C10.477 174.915 5.6803 180.523 3.15573 179.33C0.252482 177.898 2.39836 176.466 3.66064 175.034C5.55407 172.648 10.2245 167.875 12.4966 165.728C17.2933 161.074 22.7211 155.705 26.3817 150.694C29.0325 146.995 24.9932 136.376 25.3719 130.053C26.1293 114.9 31.3046 100.105 38.3734 86.503C51.3749 61.5662 72.7075 36.7488 99.2154 24.2208C112.469 18.1358 125.85 12.1701 140.113 7.99406C147.813 5.72709 163.971 -6.44298 165.233 8.59064C167.126 32.0956 160.057 55.8391 150.212 77.1964C148.066 81.7304 145.667 86.3836 143.269 90.7983Z" fill="#B9E2BF"/>
</g>
</svg>
